<?xml version="1.0" encoding="UTF-8"?>
<svg width="52px" height="54px" viewBox="0 0 52 54" version="1.1" xmlns="http://www.w3.org/2000/svg" xmlns:xlink="http://www.w3.org/1999/xlink">
    <g id="Page-1" stroke="none" stroke-width="1" fill="none" fill-rule="evenodd">
        <path d="M26.2105519,6.77432989 C28.3378289,6.77705389 30.3699189,7.14525989 32.2943109,7.76069089 L30.7711479,10.3948409 L41.5833199,10.3948409 L38.8794089,5.71268289 L36.1779779,1.03147189 L34.7557979,3.49815989 C32.0905069,2.52370889 29.2170709,1.97831389 26.2124059,1.97831389 C12.3820419,1.97831389 1.17208786,13.1889619 1.17208786,27.0192759 C1.17208786,32.7593429 3.12437786,38.0333449 6.37323686,42.2586139 L10.1807089,39.3352669 C7.55303486,35.9205029 5.97324286,31.6593869 5.96468286,27.0208019 C5.98367286,15.8389399 15.0302419,6.79148489 26.2105519,6.77433089 L26.2105519,6.77433089 L26.2105519,6.77432989 Z M46.0521389,11.7854649 L42.2446669,14.7103059 C44.8717349,18.1234889 46.4518279,22.3818009 46.4588319,27.0220639 C46.4398499,38.2035629 37.3932879,47.2500459 26.2124059,47.2683869 C24.2310369,47.2660139 22.3354609,46.9437979 20.5285909,46.4047969 L21.9617349,43.9264189 L11.1499059,43.9264189 L13.8516389,48.6061709 L16.5552709,53.2922749 L18.0625109,50.6765979 C20.6188659,51.5665359 23.3548119,52.0629199 26.2124059,52.0644149 C40.0448609,52.0617449 51.2529519,40.8511389 51.2559659,27.0208019 C51.2529519,21.2807159 49.2991479,16.0082019 46.0521389,11.7854649 L46.0521389,11.7854649 L46.0521389,11.7854649 Z" id="svg_10" stroke="#FF8700" stroke-width="1.5" fill="#FF8700" fill-rule="nonzero" transform="translate(26.214027, 27.161873) rotate(13.347419) translate(-26.214027, -27.161873) "></path>
    </g>
</svg>